<svg viewBox="0 0 19 19" xmlns="http://www.w3.org/2000/svg"><path d="M14.398 19c-.686 0-1.342-.156-1.978-.388a54.397 54.397 0 01-2.551-.968c-1.079-.45-2.038-1.11-2.944-1.845-1.723-1.397-3.254-2.973-4.525-4.798C1.696 9.985 1.19 8.877.792 7.713c-.23-.672-.484-1.34-.654-2.028-.32-1.278-.067-2.492.571-3.63.188-.335.413-.656.638-.97.305-.43.725-.707 1.241-.824.406-.092.817-.168 1.23-.243.351-.067.622.053.8.376.29.525.58 1.053.882 1.572.376.647.764 1.287 1.147 1.93.055.094.115.188.165.284.152.29.15.576-.075.817a15.39 15.39 0 01-.895.879c-.36.328-.739.635-1.1.959-.277.252-.341.557-.157.895.218.403.438.805.674 1.202.741 1.246 1.634 2.37 2.733 3.325.8.69 1.675 1.268 2.595 1.787.25.14.507.273.762.404.277.142.532.082.743-.133.262-.264.512-.54.76-.817.32-.36.617-.741.956-1.08.413-.412.707-.453 1.177-.136 1.092.743 2.276 1.326 3.424 1.978.07.04.14.094.213.133.305.165.41.424.37.761a7.505 7.505 0 01-.359 1.572c-.142.404-.417.698-.745.95-.847.643-1.772 1.11-2.834 1.274l-.076.006c-.195.016-.387.03-.58.044"/></svg>
